# Blender 3.6.1
# www.blender.org
mtllib .308.mtl
o Cylinder
v 1.765639 0.067501 -2.616372
v 1.765639 0.067501 -1.016686
v 1.859376 0.028674 -2.616372
v 1.859376 0.028674 -1.016686
v 1.931119 -0.043069 -2.616372
v 1.931119 -0.043069 -1.016686
v 1.969946 -0.136806 -2.616372
v 1.969946 -0.136807 -1.016686
v 1.969946 -0.238267 -2.616372
v 1.969946 -0.238267 -1.016686
v 1.931119 -0.332004 -2.616372
v 1.931119 -0.332004 -1.016686
v 1.859376 -0.403747 -2.616372
v 1.859376 -0.403747 -1.016686
v 1.765639 -0.442574 -2.616372
v 1.765639 -0.442574 -1.016686
v 1.664179 -0.442574 -2.616372
v 1.664179 -0.442574 -1.016686
v 1.570441 -0.403747 -2.616372
v 1.570441 -0.403747 -1.016686
v 1.498698 -0.332004 -2.616372
v 1.498698 -0.332004 -1.016686
v 1.459871 -0.238267 -2.616372
v 1.459871 -0.238267 -1.016686
v 1.459871 -0.136806 -2.616372
v 1.459871 -0.136807 -1.016686
v 1.498698 -0.043069 -2.616372
v 1.498698 -0.043069 -1.016686
v 1.570441 0.028674 -2.616372
v 1.570441 0.028674 -1.016686
v 1.664179 0.067501 -2.616372
v 1.664179 0.067501 -1.016686
v 1.757719 0.027686 -2.666417
v 1.836823 -0.005079 -2.666417
v 1.897366 -0.065623 -2.666417
v 1.930132 -0.144726 -2.666417
v 1.930132 -0.230347 -2.666417
v 1.897366 -0.309451 -2.666417
v 1.836823 -0.369994 -2.666417
v 1.757719 -0.402760 -2.666417
v 1.672098 -0.402760 -2.666417
v 1.592995 -0.369994 -2.666417
v 1.532452 -0.309451 -2.666417
v 1.499686 -0.230347 -2.666417
v 1.499686 -0.144726 -2.666417
v 1.532452 -0.065623 -2.666417
v 1.592995 -0.005079 -2.666417
v 1.672098 0.027686 -2.666417
v 1.757719 0.027686 -2.733199
v 1.836823 -0.005079 -2.733199
v 1.897366 -0.065623 -2.733199
v 1.930132 -0.144726 -2.733199
v 1.930132 -0.230347 -2.733199
v 1.897366 -0.309451 -2.733199
v 1.836823 -0.369994 -2.733199
v 1.757719 -0.402760 -2.733199
v 1.672098 -0.402760 -2.733199
v 1.592995 -0.369994 -2.733199
v 1.532452 -0.309451 -2.733199
v 1.499686 -0.230347 -2.733199
v 1.499686 -0.144726 -2.733199
v 1.532452 -0.065623 -2.733199
v 1.592995 -0.005079 -2.733199
v 1.672098 0.027686 -2.733199
v 1.765612 0.067365 -2.735264
v 1.859299 0.028559 -2.735264
v 1.931004 -0.043146 -2.735264
v 1.969810 -0.136834 -2.735264
v 1.969810 -0.238240 -2.735264
v 1.931004 -0.331927 -2.735264
v 1.859299 -0.403632 -2.735264
v 1.765612 -0.442438 -2.735264
v 1.664206 -0.442438 -2.735264
v 1.570518 -0.403632 -2.735264
v 1.498814 -0.331927 -2.735264
v 1.460007 -0.238240 -2.735264
v 1.460007 -0.136834 -2.735264
v 1.498814 -0.043146 -2.735264
v 1.570518 0.028559 -2.735264
v 1.664206 0.067365 -2.735264
v 1.741419 -0.054261 -2.796103
v 1.790403 -0.074551 -2.796103
v 1.827894 -0.112042 -2.796103
v 1.848184 -0.161027 -2.796103
v 1.848184 -0.214047 -2.796103
v 1.827894 -0.263031 -2.796103
v 1.790403 -0.300522 -2.796103
v 1.741419 -0.320812 -2.796103
v 1.688399 -0.320812 -2.796103
v 1.639414 -0.300522 -2.796103
v 1.601923 -0.263031 -2.796103
v 1.581633 -0.214047 -2.796103
v 1.581633 -0.161027 -2.796103
v 1.601923 -0.112042 -2.796103
v 1.639414 -0.074551 -2.796103
v 1.688399 -0.054261 -2.796103
v 1.819792 -0.030568 -0.830752
v 1.751739 -0.002379 -0.830752
v 1.871878 -0.082653 -0.830752
v 1.900066 -0.150707 -0.830752
v 1.900066 -0.224367 -0.830752
v 1.871878 -0.292420 -0.830752
v 1.819792 -0.344505 -0.830752
v 1.751739 -0.372694 -0.830752
v 1.678079 -0.372694 -0.830752
v 1.610026 -0.344505 -0.830752
v 1.557940 -0.292420 -0.830752
v 1.529751 -0.224367 -0.830752
v 1.529751 -0.150707 -0.830752
v 1.557940 -0.082653 -0.830752
v 1.610026 -0.030568 -0.830752
v 1.678079 -0.002379 -0.830752
v 1.814125 -0.039049 -0.519543
v 1.749749 -0.012383 -0.519543
v 1.863397 -0.088320 -0.519543
v 1.890062 -0.152697 -0.519543
v 1.890062 -0.222377 -0.519543
v 1.863397 -0.286753 -0.519543
v 1.814125 -0.336024 -0.519543
v 1.749749 -0.362690 -0.519543
v 1.680069 -0.362690 -0.519543
v 1.615692 -0.336024 -0.519543
v 1.566421 -0.286753 -0.519543
v 1.539756 -0.222377 -0.519543
v 1.539756 -0.152697 -0.519543
v 1.566421 -0.088320 -0.519543
v 1.615692 -0.039049 -0.519543
v 1.680069 -0.012383 -0.519543
v 1.819792 -0.030568 -0.514447
v 1.751739 -0.002379 -0.514447
v 1.871878 -0.082653 -0.514447
v 1.900066 -0.150707 -0.514447
v 1.900066 -0.224367 -0.514447
v 1.871878 -0.292420 -0.514447
v 1.819792 -0.344506 -0.514447
v 1.751739 -0.372694 -0.514447
v 1.678079 -0.372694 -0.514447
v 1.610026 -0.344506 -0.514447
v 1.557940 -0.292420 -0.514447
v 1.529751 -0.224367 -0.514447
v 1.529751 -0.150707 -0.514447
v 1.557940 -0.082653 -0.514447
v 1.610026 -0.030568 -0.514447
v 1.678079 -0.002379 -0.514447
v 1.790564 -0.074310 -0.217876
v 1.741475 -0.053977 -0.217876
v 1.828135 -0.111881 -0.217876
v 1.848468 -0.160970 -0.217876
v 1.848468 -0.214103 -0.217876
v 1.828135 -0.263192 -0.217876
v 1.790564 -0.300763 -0.217876
v 1.741475 -0.321096 -0.217876
v 1.688342 -0.321096 -0.217876
v 1.639253 -0.300763 -0.217876
v 1.601682 -0.263192 -0.217876
v 1.581349 -0.214103 -0.217876
v 1.581349 -0.160970 -0.217876
v 1.601682 -0.111881 -0.217876
v 1.639253 -0.074310 -0.217876
v 1.688342 -0.053977 -0.217876
v 1.721417 -0.177797 0.157805
v 1.717194 -0.176048 0.157805
v 1.724649 -0.181029 0.157805
v 1.726398 -0.185251 0.157805
v 1.726398 -0.189822 0.157805
v 1.724649 -0.194045 0.157805
v 1.721417 -0.197277 0.157805
v 1.717194 -0.199026 0.157805
v 1.712623 -0.199026 0.157805
v 1.708401 -0.197277 0.157805
v 1.705169 -0.194045 0.157805
v 1.703420 -0.189822 0.157805
v 1.703420 -0.185251 0.157805
v 1.705169 -0.181029 0.157805
v 1.708401 -0.177797 0.157805
v 1.712623 -0.176048 0.157805
v 1.765612 0.067365 -2.796103
v 1.859299 0.028559 -2.796103
v 1.931004 -0.043146 -2.796103
v 1.969810 -0.136834 -2.796103
v 1.969810 -0.238240 -2.796103
v 1.931004 -0.331927 -2.796103
v 1.859299 -0.403632 -2.796103
v 1.765612 -0.442438 -2.796103
v 1.664206 -0.442438 -2.796103
v 1.570518 -0.403632 -2.796103
v 1.498814 -0.331927 -2.796103
v 1.460007 -0.238240 -2.796103
v 1.460007 -0.136834 -2.796103
v 1.498814 -0.043146 -2.796103
v 1.570518 0.028559 -2.796103
v 1.664206 0.067365 -2.796103
v 1.741419 -0.054261 -2.757602
v 1.790403 -0.074551 -2.757602
v 1.827894 -0.112042 -2.757602
v 1.848184 -0.161027 -2.757602
v 1.848184 -0.214047 -2.757602
v 1.827894 -0.263031 -2.757602
v 1.790403 -0.300522 -2.757602
v 1.741419 -0.320812 -2.757602
v 1.688399 -0.320812 -2.757602
v 1.639414 -0.300522 -2.757602
v 1.601923 -0.263031 -2.757602
v 1.581633 -0.214047 -2.757602
v 1.581633 -0.161027 -2.757602
v 1.601923 -0.112042 -2.757602
v 1.639414 -0.074551 -2.757602
v 1.688399 -0.054261 -2.757602
vn 0.3827 0.9239 -0.0000
vn 0.7071 0.7071 -0.0000
vn 0.9239 0.3827 -0.0000
vn 1.0000 -0.0000 -0.0000
vn 0.9239 -0.3827 -0.0000
vn 0.7071 -0.7071 -0.0000
vn 0.3827 -0.9239 -0.0000
vn -0.0000 -1.0000 -0.0000
vn -0.3827 -0.9239 -0.0000
vn -0.7071 -0.7071 -0.0000
vn -0.9239 -0.3827 -0.0000
vn -1.0000 -0.0000 -0.0000
vn -0.9239 0.3827 -0.0000
vn -0.7071 0.7071 -0.0000
vn -0.3827 0.9239 -0.0000
vn 0.3582 0.8648 0.3518
vn -0.0000 0.7826 -0.6226
vn -0.0000 1.0000 -0.0000
vn 0.7826 -0.0000 -0.6226
vn -0.2995 -0.7230 -0.6226
vn -0.5533 0.5533 -0.6226
vn 0.5534 0.5533 -0.6226
vn 0.2995 -0.7230 -0.6226
vn -0.7826 -0.0000 -0.6226
vn 0.7230 -0.2995 -0.6226
vn -0.5533 -0.5533 -0.6226
vn -0.2995 0.7230 -0.6226
vn 0.7230 0.2995 -0.6226
vn -0.0000 -0.7826 -0.6226
vn -0.7230 0.2995 -0.6226
vn 0.2995 0.7230 -0.6226
vn 0.5533 -0.5534 -0.6226
vn -0.7230 -0.2995 -0.6226
vn 0.0520 -0.0000 0.9986
vn -0.0520 -0.0000 0.9986
vn 0.0480 -0.0199 0.9986
vn -0.0480 0.0199 0.9986
vn 0.0368 -0.0368 0.9986
vn -0.0368 0.0368 0.9986
vn 0.0199 -0.0480 0.9986
vn -0.0199 0.0480 0.9986
vn -0.0000 -0.0520 0.9986
vn 0.0199 0.0480 0.9986
vn -0.0000 0.0520 0.9986
vn -0.0199 -0.0480 0.9986
vn 0.0368 0.0368 0.9986
vn -0.0368 -0.0368 0.9986
vn 0.0480 0.0199 0.9986
vn -0.0480 -0.0199 0.9986
vn 0.6619 -0.6619 0.3518
vn -0.8648 -0.3582 0.3518
vn -0.0000 0.9361 0.3518
vn 0.9361 -0.0000 0.3518
vn -0.3582 -0.8648 0.3518
vn -0.6619 0.6619 0.3518
vn 0.6619 0.6619 0.3518
vn 0.3582 -0.8648 0.3518
vn -0.9361 -0.0000 0.3518
vn 0.8648 -0.3582 0.3518
vn -0.6619 -0.6619 0.3518
vn -0.3582 0.8648 0.3518
vn 0.8648 0.3582 0.3518
vn -0.0000 -0.9361 0.3518
vn -0.8648 0.3582 0.3518
vn -0.3791 -0.9152 0.1366
vn -0.1737 -0.4194 0.8910
vn -0.3210 -0.3210 0.8910
vn -0.4194 -0.1737 0.8910
vn -0.4539 -0.0000 0.8910
vn -0.4194 0.1737 0.8910
vn -0.3210 0.3210 0.8910
vn -0.1737 0.4194 0.8910
vn -0.0000 0.4539 0.8910
vn 0.1737 0.4194 0.8910
vn 0.3210 0.3210 0.8910
vn 0.4194 0.1737 0.8910
vn 0.4539 -0.0000 0.8910
vn 0.4194 -0.1737 0.8910
vn 0.3210 -0.3210 0.8910
vn 0.1737 -0.4194 0.8910
vn -0.0000 -0.4539 0.8910
vn -0.6725 0.6725 0.3090
vn 0.7005 0.7005 0.1366
vn -0.7005 -0.7005 0.1366
vn 0.9152 0.3791 0.1366
vn -0.9152 -0.3791 0.1366
vn 0.9906 -0.0000 0.1366
vn -0.9906 -0.0000 0.1366
vn 0.9152 -0.3791 0.1366
vn -0.9152 0.3791 0.1366
vn 0.7005 -0.7005 0.1366
vn -0.7005 0.7005 0.1366
vn 0.3791 -0.9152 0.1366
vn -0.3791 0.9152 0.1366
vn -0.0000 -0.9906 0.1366
vn 0.3791 0.9152 0.1366
vn -0.0000 0.9906 0.1366
vn -0.0000 -0.0000 1.0000
vn 0.3640 -0.8787 0.3090
vn -0.3640 0.8787 0.3090
vn -0.0000 -0.9511 0.3090
vn 0.3640 0.8787 0.3090
vn -0.0000 0.9511 0.3090
vn -0.3640 -0.8787 0.3090
vn 0.6725 0.6725 0.3090
vn -0.6725 -0.6725 0.3090
vn 0.8787 0.3640 0.3090
vn -0.8787 -0.3640 0.3090
vn 0.9511 -0.0000 0.3090
vn -0.9511 -0.0000 0.3090
vn 0.8787 -0.3640 0.3090
vn -0.8787 0.3640 0.3090
vn 0.6725 -0.6725 0.3090
vn -0.0000 -0.0000 -1.0000
vt 0.968750 1.000000
vt 0.906250 1.000000
vt 0.906250 0.500000
vt 0.968750 0.500000
vt 0.843750 1.000000
vt 0.843750 0.500000
vt 0.781250 1.000000
vt 0.781250 0.500000
vt 0.718750 1.000000
vt 0.718750 0.500000
vt 0.656250 1.000000
vt 0.656250 0.500000
vt 0.593750 1.000000
vt 0.593750 0.500000
vt 0.531250 1.000000
vt 0.531250 0.500000
vt 0.468750 1.000000
vt 0.468750 0.500000
vt 0.406250 1.000000
vt 0.406250 0.500000
vt 0.343750 1.000000
vt 0.343750 0.500000
vt 0.281250 1.000000
vt 0.281250 0.500000
vt 0.218750 1.000000
vt 0.218750 0.500000
vt 0.156250 1.000000
vt 0.156250 0.500000
vt 0.093750 1.000000
vt 0.093750 0.500000
vt 0.031250 1.000000
vt 0.031250 0.500000
vt 0.873073 0.274481
vt 0.873073 0.225519
vt 0.123867 0.061229
vt 0.205708 0.027330
vt 0.294292 0.472670
vt 0.376133 0.438771
vt 0.383337 0.449553
vt 0.296822 0.485388
vt 0.438771 0.376133
vt 0.449553 0.383337
vt 0.472670 0.294292
vt 0.485388 0.296822
vt 0.472670 0.205708
vt 0.485388 0.203178
vt 0.438771 0.123867
vt 0.449553 0.116663
vt 0.376133 0.061229
vt 0.383337 0.050447
vt 0.294292 0.027330
vt 0.296822 0.014612
vt 0.203178 0.014612
vt 0.116663 0.050447
vt 0.061229 0.123867
vt 0.050447 0.116663
vt 0.027330 0.205708
vt 0.014612 0.203178
vt 0.027330 0.294292
vt 0.014612 0.296822
vt 0.061229 0.376133
vt 0.050447 0.383337
vt 0.123867 0.438771
vt 0.116663 0.449553
vt 0.205708 0.472670
vt 0.203178 0.485388
vt 0.819715 0.354336
vt 0.774481 0.373073
vt 0.796822 0.485388
vt 0.883337 0.449553
vt 0.854336 0.319715
vt 0.949553 0.383337
vt 0.985388 0.296822
vt 0.985388 0.203178
vt 0.854336 0.180285
vt 0.949553 0.116663
vt 0.819715 0.145664
vt 0.883337 0.050447
vt 0.774481 0.126927
vt 0.796822 0.014612
vt 0.725519 0.126927
vt 0.703178 0.014612
vt 0.680285 0.145664
vt 0.616663 0.050447
vt 0.645664 0.180285
vt 0.550447 0.116663
vt 0.626927 0.225519
vt 0.514612 0.203178
vt 0.626927 0.274481
vt 0.514612 0.296822
vt 0.645664 0.319715
vt 0.550447 0.383337
vt 0.680285 0.354336
vt 0.616663 0.449553
vt 0.725519 0.373073
vt 0.703178 0.485388
s 0
f 2/1/1 4/2/1 3/3/1 1/4/1
f 4/2/2 6/5/2 5/6/2 3/3/2
f 6/5/3 8/7/3 7/8/3 5/6/3
f 8/7/4 10/9/4 9/10/4 7/8/4
f 10/9/5 12/11/5 11/12/5 9/10/5
f 12/11/6 14/13/6 13/14/6 11/12/6
f 14/13/7 16/15/7 15/16/7 13/14/7
f 16/15/8 18/17/8 17/18/8 15/16/8
f 18/17/9 20/19/9 19/20/9 17/18/9
f 20/19/10 22/21/10 21/22/10 19/20/10
f 22/21/11 24/23/11 23/24/11 21/22/11
f 24/23/12 26/25/12 25/26/12 23/24/12
f 26/25/13 28/27/13 27/28/13 25/26/13
f 28/27/14 30/29/14 29/30/14 27/28/14
f 30/29/15 32/31/15 31/32/15 29/30/15
f 4/2/16 2/1/16 98/1/16 97/2/16
f 31/32/17 1/4/17 33/4/17 48/32/17
f 31/32/18 32/31/18 2/1/18 1/4/18
f 46/28/14 47/30/14 63/30/14 62/28/14
f 7/8/19 9/10/19 37/10/19 36/8/19
f 17/18/20 19/20/20 42/20/20 41/18/20
f 27/28/21 29/30/21 47/30/21 46/28/21
f 3/3/22 5/6/22 35/6/22 34/3/22
f 13/14/23 15/16/23 40/16/23 39/14/23
f 23/24/24 25/26/24 45/26/24 44/24/24
f 9/10/25 11/12/25 38/12/25 37/10/25
f 19/20/26 21/22/26 43/22/26 42/20/26
f 29/30/27 31/32/27 48/32/27 47/30/27
f 5/6/28 7/8/28 36/8/28 35/6/28
f 15/16/29 17/18/29 41/18/29 40/16/29
f 25/26/30 27/28/30 46/28/30 45/26/30
f 1/4/31 3/3/31 34/3/31 33/4/31
f 11/12/32 13/14/32 39/14/32 38/12/32
f 21/22/33 23/24/33 44/24/33 43/22/33
f 52/8/34 53/10/34 69/10/34 68/8/34
f 39/14/7 40/16/7 56/16/7 55/14/7
f 47/30/15 48/32/15 64/32/15 63/30/15
f 40/16/8 41/18/8 57/18/8 56/16/8
f 33/4/1 34/3/1 50/3/1 49/4/1
f 48/32/18 33/4/18 49/4/18 64/32/18
f 41/18/9 42/20/9 58/20/9 57/18/9
f 34/3/2 35/6/2 51/6/2 50/3/2
f 42/20/10 43/22/10 59/22/10 58/20/10
f 35/6/3 36/8/3 52/8/3 51/6/3
f 43/22/11 44/24/11 60/24/11 59/22/11
f 36/8/4 37/10/4 53/10/4 52/8/4
f 44/24/12 45/26/12 61/26/12 60/24/12
f 37/10/5 38/12/5 54/12/5 53/10/5
f 45/26/13 46/28/13 62/28/13 61/26/13
f 38/12/6 39/14/6 55/14/6 54/12/6
f 73/18/9 74/20/9 186/20/9 185/18/9
f 60/24/35 61/26/35 77/26/35 76/24/35
f 53/10/36 54/12/36 70/12/36 69/10/36
f 61/26/37 62/28/37 78/28/37 77/26/37
f 54/12/38 55/14/38 71/14/38 70/12/38
f 62/28/39 63/30/39 79/30/39 78/28/39
f 55/14/40 56/16/40 72/16/40 71/14/40
f 63/30/41 64/32/41 80/32/41 79/30/41
f 56/16/42 57/18/42 73/18/42 72/16/42
f 49/4/43 50/3/43 66/3/43 65/4/43
f 64/32/44 49/4/44 65/4/44 80/32/44
f 57/18/45 58/20/45 74/20/45 73/18/45
f 50/3/46 51/6/46 67/6/46 66/3/46
f 58/20/47 59/22/47 75/22/47 74/20/47
f 51/6/48 52/8/48 68/8/48 67/6/48
f 59/22/49 60/24/49 76/24/49 75/22/49
f 84/33/12 85/34/12 197/34/12 196/33/12
f 66/3/2 67/6/2 179/6/2 178/3/2
f 74/20/10 75/22/10 187/22/10 186/20/10
f 67/6/3 68/8/3 180/8/3 179/6/3
f 75/22/11 76/24/11 188/24/11 187/22/11
f 68/8/4 69/10/4 181/10/4 180/8/4
f 76/24/12 77/26/12 189/26/12 188/24/12
f 69/10/5 70/12/5 182/12/5 181/10/5
f 77/26/13 78/28/13 190/28/13 189/26/13
f 70/12/6 71/14/6 183/14/6 182/12/6
f 78/28/14 79/30/14 191/30/14 190/28/14
f 71/14/7 72/16/7 184/16/7 183/14/7
f 79/30/15 80/32/15 192/32/15 191/30/15
f 72/16/8 73/18/8 185/18/8 184/16/8
f 65/4/1 66/3/1 178/3/1 177/4/1
f 80/32/18 65/4/18 177/4/18 192/32/18
f 109/25/12 108/23/12 140/23/12 141/25/12
f 14/13/50 12/11/50 102/11/50 103/13/50
f 24/23/51 22/21/51 107/21/51 108/23/51
f 2/1/52 32/31/52 112/31/52 98/1/52
f 10/9/53 8/7/53 100/7/53 101/9/53
f 20/19/54 18/17/54 105/17/54 106/19/54
f 30/29/55 28/27/55 110/27/55 111/29/55
f 6/5/56 4/2/56 97/2/56 99/5/56
f 16/15/57 14/13/57 103/13/57 104/15/57
f 26/25/58 24/23/58 108/23/58 109/25/58
f 12/11/59 10/9/59 101/9/59 102/11/59
f 22/21/60 20/19/60 106/19/60 107/21/60
f 32/31/61 30/29/61 111/29/61 112/31/61
f 8/7/62 6/5/62 99/5/62 100/7/62
f 18/17/63 16/15/63 104/15/63 105/17/63
f 28/27/64 26/25/64 109/25/64 110/27/64
f 122/35/65 121/36/65 153/36/65 154/35/65
f 102/11/5 101/9/5 133/9/5 134/11/5
f 110/27/13 109/25/13 141/25/13 142/27/13
f 103/13/6 102/11/6 134/11/6 135/13/6
f 111/29/14 110/27/14 142/27/14 143/29/14
f 104/15/7 103/13/7 135/13/7 136/15/7
f 112/31/15 111/29/15 143/29/15 144/31/15
f 105/17/8 104/15/8 136/15/8 137/17/8
f 97/2/1 98/1/1 130/1/1 129/2/1
f 98/1/18 112/31/18 144/31/18 130/1/18
f 106/19/9 105/17/9 137/17/9 138/19/9
f 99/5/2 97/2/2 129/2/2 131/5/2
f 107/21/10 106/19/10 138/19/10 139/21/10
f 100/7/3 99/5/3 131/5/3 132/7/3
f 108/23/11 107/21/11 139/21/11 140/23/11
f 101/9/4 100/7/4 132/7/4 133/9/4
f 114/37/66 113/38/66 129/39/66 130/40/66
f 113/38/67 115/41/67 131/42/67 129/39/67
f 115/41/68 116/43/68 132/44/68 131/42/68
f 116/43/69 117/45/69 133/46/69 132/44/69
f 117/45/70 118/47/70 134/48/70 133/46/70
f 118/47/71 119/49/71 135/50/71 134/48/71
f 119/49/72 120/51/72 136/52/72 135/50/72
f 120/51/73 121/36/73 137/53/73 136/52/73
f 121/36/74 122/35/74 138/54/74 137/53/74
f 122/35/75 123/55/75 139/56/75 138/54/75
f 123/55/76 124/57/76 140/58/76 139/56/76
f 124/57/77 125/59/77 141/60/77 140/58/77
f 125/59/78 126/61/78 142/62/78 141/60/78
f 126/61/79 127/63/79 143/64/79 142/62/79
f 127/63/80 128/65/80 144/66/80 143/64/80
f 128/65/81 114/37/81 130/40/81 144/66/81
f 159/63/82 158/61/82 174/61/82 175/63/82
f 115/41/83 113/38/83 145/38/83 147/41/83
f 123/55/84 122/35/84 154/35/84 155/55/84
f 116/43/85 115/41/85 147/41/85 148/43/85
f 124/57/86 123/55/86 155/55/86 156/57/86
f 117/45/87 116/43/87 148/43/87 149/45/87
f 125/59/88 124/57/88 156/57/88 157/59/88
f 118/47/89 117/45/89 149/45/89 150/47/89
f 126/61/90 125/59/90 157/59/90 158/61/90
f 119/49/91 118/47/91 150/47/91 151/49/91
f 127/63/92 126/61/92 158/61/92 159/63/92
f 120/51/93 119/49/93 151/49/93 152/51/93
f 128/65/94 127/63/94 159/63/94 160/65/94
f 121/36/95 120/51/95 152/51/95 153/36/95
f 113/38/96 114/37/96 146/37/96 145/38/96
f 114/37/97 128/65/97 160/65/97 146/37/97
f 162/37/98 176/65/98 175/63/98 174/61/98 173/59/98 172/57/98 171/55/98 170/35/98 169/36/98 168/51/98 167/49/98 166/47/98 165/45/98 164/43/98 163/41/98 161/38/98
f 152/51/99 151/49/99 167/49/99 168/51/99
f 160/65/100 159/63/100 175/63/100 176/65/100
f 153/36/101 152/51/101 168/51/101 169/36/101
f 145/38/102 146/37/102 162/37/102 161/38/102
f 146/37/103 160/65/103 176/65/103 162/37/103
f 154/35/104 153/36/104 169/36/104 170/35/104
f 147/41/105 145/38/105 161/38/105 163/41/105
f 155/55/106 154/35/106 170/35/106 171/55/106
f 148/43/107 147/41/107 163/41/107 164/43/107
f 156/57/108 155/55/108 171/55/108 172/57/108
f 149/45/109 148/43/109 164/43/109 165/45/109
f 157/59/110 156/57/110 172/57/110 173/59/110
f 150/47/111 149/45/111 165/45/111 166/47/111
f 158/61/112 157/59/112 173/59/112 174/61/112
f 151/49/113 150/47/113 166/47/113 167/49/113
f 82/67/114 81/68/114 177/69/114 178/70/114
f 83/71/114 82/67/114 178/70/114 179/72/114
f 84/33/114 83/71/114 179/72/114 180/73/114
f 85/34/114 84/33/114 180/73/114 181/74/114
f 86/75/114 85/34/114 181/74/114 182/76/114
f 87/77/114 86/75/114 182/76/114 183/78/114
f 88/79/114 87/77/114 183/78/114 184/80/114
f 89/81/114 88/79/114 184/80/114 185/82/114
f 90/83/114 89/81/114 185/82/114 186/84/114
f 91/85/114 90/83/114 186/84/114 187/86/114
f 92/87/114 91/85/114 187/86/114 188/88/114
f 93/89/114 92/87/114 188/88/114 189/90/114
f 94/91/114 93/89/114 189/90/114 190/92/114
f 95/93/114 94/91/114 190/92/114 191/94/114
f 96/95/114 95/93/114 191/94/114 192/96/114
f 81/68/114 96/95/114 192/96/114 177/69/114
f 193/68/114 194/67/114 195/71/114 196/33/114 197/34/114 198/75/114 199/77/114 200/79/114 201/81/114 202/83/114 203/85/114 204/87/114 205/89/114 206/91/114 207/93/114 208/95/114
f 92/87/4 93/89/4 205/89/4 204/87/4
f 85/34/13 86/75/13 198/75/13 197/34/13
f 93/89/5 94/91/5 206/91/5 205/89/5
f 86/75/14 87/77/14 199/77/14 198/75/14
f 94/91/6 95/93/6 207/93/6 206/91/6
f 87/77/15 88/79/15 200/79/15 199/77/15
f 95/93/7 96/95/7 208/95/7 207/93/7
f 88/79/18 89/81/18 201/81/18 200/79/18
f 81/68/9 82/67/9 194/67/9 193/68/9
f 96/95/8 81/68/8 193/68/8 208/95/8
f 89/81/1 90/83/1 202/83/1 201/81/1
f 82/67/10 83/71/10 195/71/10 194/67/10
f 90/83/2 91/85/2 203/85/2 202/83/2
f 83/71/11 84/33/11 196/33/11 195/71/11
f 91/85/3 92/87/3 204/87/3 203/85/3
