{
  "accessors": [
    {
      "bufferView": 2,
      "componentType": 5126,
      "count": 2767,
      "max": [
        0.0136708440259099,
        0.03964204713702202,
        0.08231482654809952
      ],
      "min": [
        -0.0136708440259099,
        0.01883966475725174,
        -0.09386258572340012
      ],
      "type": "VEC3"
    },
    {
      "bufferView": 2,
      "byteOffset": 33204,
      "componentType": 5126,
      "count": 2767,
      "max": [
        1.0,
        1.0,
        1.0
      ],
      "min": [
        -1.0,
        -1.0,
        -1.0
      ],
      "type": "VEC3"
    },
    {
      "bufferView": 3,
      "componentType": 5126,
      "count": 2767,
      "max": [
        1.0,
        1.0,
        1.0,
        1.0
      ],
      "min": [
        -0.9991879463195801,
        -1.0,
        -1.0,
        1.0
      ],
      "type": "VEC4"
    },
    {
      "bufferView": 1,
      "componentType": 5126,
      "count": 2767,
      "max": [
        0.998053252696991,
        0.9982129335403442
      ],
      "min": [
        0.0017843730747699738,
        0.001784955384209752
      ],
      "type": "VEC2"
    },
    {
      "bufferView": 0,
      "componentType": 5125,
      "count": 8802,
      "type": "SCALAR"
    },
    {
      "bufferView": 2,
      "byteOffset": 66408,
      "componentType": 5126,
      "count": 9842,
      "max": [
        0.016838036477565765,
        0.03423542529344559,
        0.1003011018037796
      ],
      "min": [
        -0.016838036477565765,
        -0.0845978632569313,
        -0.10292323678731918
      ],
      "type": "VEC3"
    },
    {
      "bufferView": 2,
      "byteOffset": 184512,
      "componentType": 5126,
      "count": 9842,
      "max": [
        1.0,
        1.0,
        1.0
      ],
      "min": [
        -1.0,
        -1.0,
        -1.0
      ],
      "type": "VEC3"
    },
    {
      "bufferView": 3,
      "byteOffset": 44272,
      "componentType": 5126,
      "count": 9842,
      "max": [
        1.0,
        1.0,
        1.0,
        1.0
      ],
      "min": [
        -1.0,
        -1.0,
        -1.0,
        -1.0
      ],
      "type": "VEC4"
    },
    {
      "bufferView": 1,
      "byteOffset": 22136,
      "componentType": 5126,
      "count": 9842,
      "max": [
        1.997501015663147,
        0.9975298047065735
      ],
      "min": [
        0.0024746358394622803,
        0.002462589181959629
      ],
      "type": "VEC2"
    },
    {
      "bufferView": 0,
      "byteOffset": 35208,
      "componentType": 5125,
      "count": 33690,
      "type": "SCALAR"
    },
    {
      "bufferView": 2,
      "byteOffset": 302616,
      "componentType": 5126,
      "count": 3810,
      "max": [
        0.01299748569726944,
        0.07470548152923584,
        0.09951060265302658
      ],
      "min": [
        -0.012566405348479748,
        0.027004629373550415,
        -0.09386289864778519
      ],
      "type": "VEC3"
    },
    {
      "bufferView": 2,
      "byteOffset": 348336,
      "componentType": 5126,
      "count": 3810,
      "max": [
        1.0,
        1.0,
        1.0
      ],
      "min": [
        -1.0,
        -1.0,
        -1.0
      ],
      "type": "VEC3"
    },
    {
      "bufferView": 3,
      "byteOffset": 201744,
      "componentType": 5126,
      "count": 3810,
      "max": [
        1.0,
        1.0,
        1.0,
        1.0
      ],
      "min": [
        -1.0,
        -1.0,
        -1.0,
        -1.0
      ],
      "type": "VEC4"
    },
    {
      "bufferView": 1,
      "byteOffset": 100872,
      "componentType": 5126,
      "count": 3810,
      "max": [
        0.9982064366340637,
        0.9902744889259338
      ],
      "min": [
        0.0017979317344725132,
        0.001759726321324706
      ],
      "type": "VEC2"
    },
    {
      "bufferView": 0,
      "byteOffset": 169968,
      "componentType": 5125,
      "count": 14520,
      "type": "SCALAR"
    },
    {
      "bufferView": 2,
      "byteOffset": 394056,
      "componentType": 5126,
      "count": 2708,
      "max": [
        0.012854272499680519,
        0.10095912963151932,
        0.04023313522338867
      ],
      "min": [
        -0.012854272499680519,
        -0.008706793189048767,
        -0.02544381096959114
      ],
      "type": "VEC3"
    },
    {
      "bufferView": 2,
      "byteOffset": 426552,
      "componentType": 5126,
      "count": 2708,
      "max": [
        1.0,
        1.0,
        1.0
      ],
      "min": [
        -1.0,
        -1.0,
        -1.0
      ],
      "type": "VEC3"
    },
    {
      "bufferView": 3,
      "byteOffset": 262704,
      "componentType": 5126,
      "count": 2708,
      "max": [
        1.0,
        1.0,
        1.0,
        1.0
      ],
      "min": [
        -1.0,
        -0.9949713349342346,
        -1.0,
        -1.0
      ],
      "type": "VEC4"
    },
    {
      "bufferView": 1,
      "byteOffset": 131352,
      "componentType": 5126,
      "count": 2708,
      "max": [
        1.997170090675354,
        0.996388852596283
      ],
      "min": [
        0.0024979570880532265,
        0.0024663943331688643
      ],
      "type": "VEC2"
    },
    {
      "bufferView": 0,
      "byteOffset": 228048,
      "componentType": 5125,
      "count": 9672,
      "type": "SCALAR"
    }
  ],
  "asset": {
    "extras": {
      "author": "Michal Cavrnoch (https://sketchfab.com/MichalCavrnoch)",
      "license": "CC-BY-NC-4.0 (http://creativecommons.org/licenses/by-nc/4.0/)",
      "source": "https://sketchfab.com/3d-models/laugo-alien-587f6501602444d8963cdddafeb730a6",
      "title": "Laugo Alien"
    },
    "generator": "Sketchfab-13.35.0",
    "version": "2.0"
  },
  "bufferViews": [
    {
      "buffer": 0,
      "byteLength": 266736,
      "name": "floatBufferViews",
      "target": 34963
    },
    {
      "buffer": 0,
      "byteLength": 153016,
      "byteOffset": 266736,
      "byteStride": 8,
      "name": "floatBufferViews",
      "target": 34962
    },
    {
      "buffer": 0,
      "byteLength": 459048,
      "byteOffset": 419752,
      "byteStride": 12,
      "name": "floatBufferViews",
      "target": 34962
    },
    {
      "buffer": 0,
      "byteLength": 306032,
      "byteOffset": 878800,
      "byteStride": 16,
      "name": "floatBufferViews",
      "target": 34962
    }
  ],
  "buffers": [
    {
      "byteLength": 1184832,
      "uri": "scene.bin"
    }
  ],
  "images": [
    {
      "uri": "textures/laugoalien_mat02_baseColor.png"
    },
    {
      "uri": "textures/laugoalien_mat02_metallicRoughness.png"
    },
    {
      "uri": "textures/laugoalien_mat02_normal.png"
    },
    {
      "uri": "textures/laugoalien_mat01_baseColor.png"
    },
    {
      "uri": "textures/laugoalien_mat01_metallicRoughness.png"
    },
    {
      "uri": "textures/laugoalien_mat01_normal.png"
    },
    {
      "uri": "textures/laugoalien_magazine_baseColor.png"
    },
    {
      "uri": "textures/laugoalien_magazine_metallicRoughness.png"
    },
    {
      "uri": "textures/laugoalien_magazine_normal.png"
    }
  ],
  "materials": [
    {
      "alphaMode": "BLEND",
      "name": "laugoalien_mat02",
      "normalTexture": {
        "index": 2
      },
      "occlusionTexture": {
        "index": 1
      },
      "pbrMetallicRoughness": {
        "baseColorTexture": {
          "index": 0
        },
        "metallicRoughnessTexture": {
          "index": 1
        }
      }
    },
    {
      "doubleSided": true,
      "name": "laugoalien_mat01",
      "normalTexture": {
        "index": 5
      },
      "occlusionTexture": {
        "index": 4
      },
      "pbrMetallicRoughness": {
        "baseColorTexture": {
          "index": 3
        },
        "metallicRoughnessTexture": {
          "index": 4
        }
      }
    },
    {
      "doubleSided": true,
      "name": "laugoalien_magazine",
      "normalTexture": {
        "index": 8
      },
      "occlusionTexture": {
        "index": 7
      },
      "pbrMetallicRoughness": {
        "baseColorTexture": {
          "index": 6
        },
        "metallicRoughnessTexture": {
          "index": 7
        }
      }
    }
  ],
  "meshes": [
    {
      "name": "Object_0",
      "primitives": [
        {
          "attributes": {
            "NORMAL": 1,
            "POSITION": 0,
            "TANGENT": 2,
            "TEXCOORD_0": 3
          },
          "indices": 4,
          "material": 0,
          "mode": 4
        }
      ]
    },
    {
      "name": "Object_1",
      "primitives": [
        {
          "attributes": {
            "NORMAL": 6,
            "POSITION": 5,
            "TANGENT": 7,
            "TEXCOORD_0": 8
          },
          "indices": 9,
          "material": 1,
          "mode": 4
        }
      ]
    },
    {
      "name": "Object_2",
      "primitives": [
        {
          "attributes": {
            "NORMAL": 11,
            "POSITION": 10,
            "TANGENT": 12,
            "TEXCOORD_0": 13
          },
          "indices": 14,
          "material": 0,
          "mode": 4
        }
      ]
    },
    {
      "name": "Object_3",
      "primitives": [
        {
          "attributes": {
            "NORMAL": 16,
            "POSITION": 15,
            "TANGENT": 17,
            "TEXCOORD_0": 18
          },
          "indices": 19,
          "material": 2,
          "mode": 4
        }
      ]
    }
  ],
  "nodes": [
    {
      "children": [
        1
      ],
      "matrix": [
        1.0,
        0.0,
        0.0,
        0.0,
        0.0,
        2.220446049250313e-16,
        -1.0,
        0.0,
        0.0,
        1.0,
        2.220446049250313e-16,
        0.0,
        0.0,
        0.0,
        0.0,
        1.0
      ],
      "name": "Sketchfab_model"
    },
    {
      "children": [
        2
      ],
      "name": "root"
    },
    {
      "children": [
        3,
        5,
        8
      ],
      "matrix": [
        1.0,
        0.0,
        0.0,
        0.0,
        0.0,
        2.220446049250313e-16,
        1.0,
        0.0,
        0.0,
        -1.0,
        2.220446049250313e-16,
        0.0,
        0.0,
        0.0,
        0.0,
        1.0
      ],
      "name": "GLTF_SceneRootNode"
    },
    {
      "children": [
        4
      ],
      "name": "slide_0"
    },
    {
      "mesh": 0,
      "name": "Object_4"
    },
    {
      "children": [
        6,
        7
      ],
      "name": "gun_1"
    },
    {
      "mesh": 1,
      "name": "Object_6"
    },
    {
      "mesh": 2,
      "name": "Object_7"
    },
    {
      "children": [
        9
      ],
      "matrix": [
        1.0,
        0.0,
        0.0,
        0.0,
        0.0,
        1.0,
        0.0,
        0.0,
        0.0,
        0.0,
        1.0,
        0.0,
        0.0,
        -0.08897187560796738,
        -0.07079079747200012,
        1.0
      ],
      "name": "magazine_2"
    },
    {
      "mesh": 3,
      "name": "Object_9"
    }
  ],
  "samplers": [
    {
      "magFilter": 9729,
      "minFilter": 9987,
      "wrapS": 10497,
      "wrapT": 10497
    }
  ],
  "scene": 0,
  "scenes": [
    {
      "name": "Sketchfab_Scene",
      "nodes": [
        0
      ]
    }
  ],
  "textures": [
    {
      "sampler": 0,
      "source": 0
    },
    {
      "sampler": 0,
      "source": 1
    },
    {
      "sampler": 0,
      "source": 2
    },
    {
      "sampler": 0,
      "source": 3
    },
    {
      "sampler": 0,
      "source": 4
    },
    {
      "sampler": 0,
      "source": 5
    },
    {
      "sampler": 0,
      "source": 6
    },
    {
      "sampler": 0,
      "source": 7
    },
    {
      "sampler": 0,
      "source": 8
    }
  ]
}
